<mxfile host="app.diagrams.net" modified="2023-09-06T07:16:28.992Z" agent="Mozilla/5.0 (Windows NT 10.0; Win64; x64) AppleWebKit/537.36 (KHTML, like Gecko) Chrome/116.0.0.0 Safari/537.36" etag="TWx7z8xOt7lyTUIMsxeu" version="21.7.2" type="github">
  <diagram name="페이지-1" id="aDPjGCdnJsrMRNOEV9eB">
    <mxGraphModel dx="1573" dy="2124" grid="1" gridSize="10" guides="1" tooltips="1" connect="1" arrows="1" fold="1" page="1" pageScale="1" pageWidth="1200" pageHeight="1600" math="0" shadow="0">
      <root>
        <mxCell id="0" />
        <mxCell id="1" parent="0" />
        <mxCell id="vCT2ARzlNAROPK_BbPEu-1" value="게시판 서비스" style="shape=umlFrame;whiteSpace=wrap;html=1;pointerEvents=0;width=140;height=40;" vertex="1" parent="1">
          <mxGeometry x="120" y="-90" width="630" height="620" as="geometry" />
        </mxCell>
        <mxCell id="vCT2ARzlNAROPK_BbPEu-2" value="이용자" style="shape=umlActor;verticalLabelPosition=bottom;verticalAlign=top;html=1;" vertex="1" parent="1">
          <mxGeometry x="40" y="170" width="40" height="70" as="geometry" />
        </mxCell>
        <mxCell id="vCT2ARzlNAROPK_BbPEu-20" style="rounded=0;orthogonalLoop=1;jettySize=auto;html=1;exitX=0;exitY=0.5;exitDx=0;exitDy=0;endArrow=none;endFill=0;" edge="1" parent="1" source="vCT2ARzlNAROPK_BbPEu-5" target="vCT2ARzlNAROPK_BbPEu-2">
          <mxGeometry relative="1" as="geometry" />
        </mxCell>
        <mxCell id="vCT2ARzlNAROPK_BbPEu-5" value="회원 가입" style="ellipse;whiteSpace=wrap;html=1;" vertex="1" parent="1">
          <mxGeometry x="160" y="40" width="120" height="70" as="geometry" />
        </mxCell>
        <mxCell id="vCT2ARzlNAROPK_BbPEu-21" style="rounded=0;orthogonalLoop=1;jettySize=auto;html=1;exitX=0;exitY=0.5;exitDx=0;exitDy=0;endArrow=none;endFill=0;" edge="1" parent="1" source="vCT2ARzlNAROPK_BbPEu-6" target="vCT2ARzlNAROPK_BbPEu-2">
          <mxGeometry relative="1" as="geometry" />
        </mxCell>
        <mxCell id="vCT2ARzlNAROPK_BbPEu-23" style="rounded=0;orthogonalLoop=1;jettySize=auto;html=1;exitX=1;exitY=0.5;exitDx=0;exitDy=0;entryX=0.5;entryY=1;entryDx=0;entryDy=0;dashed=1;" edge="1" parent="1" source="vCT2ARzlNAROPK_BbPEu-6" target="vCT2ARzlNAROPK_BbPEu-9">
          <mxGeometry relative="1" as="geometry" />
        </mxCell>
        <mxCell id="vCT2ARzlNAROPK_BbPEu-6" value="게시판 보기" style="ellipse;whiteSpace=wrap;html=1;" vertex="1" parent="1">
          <mxGeometry x="160" y="210" width="120" height="70" as="geometry" />
        </mxCell>
        <mxCell id="vCT2ARzlNAROPK_BbPEu-22" style="rounded=0;orthogonalLoop=1;jettySize=auto;html=1;exitX=0;exitY=0.5;exitDx=0;exitDy=0;entryX=0.825;entryY=0.386;entryDx=0;entryDy=0;entryPerimeter=0;endArrow=none;endFill=0;" edge="1" parent="1" source="vCT2ARzlNAROPK_BbPEu-7" target="vCT2ARzlNAROPK_BbPEu-2">
          <mxGeometry relative="1" as="geometry" />
        </mxCell>
        <mxCell id="vCT2ARzlNAROPK_BbPEu-24" style="rounded=0;orthogonalLoop=1;jettySize=auto;html=1;exitX=1;exitY=0.5;exitDx=0;exitDy=0;entryX=0.5;entryY=1;entryDx=0;entryDy=0;dashed=1;" edge="1" parent="1" source="vCT2ARzlNAROPK_BbPEu-7" target="vCT2ARzlNAROPK_BbPEu-9">
          <mxGeometry relative="1" as="geometry" />
        </mxCell>
        <mxCell id="vCT2ARzlNAROPK_BbPEu-7" value="게시글 보기" style="ellipse;whiteSpace=wrap;html=1;" vertex="1" parent="1">
          <mxGeometry x="160" y="380" width="120" height="70" as="geometry" />
        </mxCell>
        <mxCell id="vCT2ARzlNAROPK_BbPEu-19" style="rounded=0;orthogonalLoop=1;jettySize=auto;html=1;exitX=0;exitY=0.5;exitDx=0;exitDy=0;endArrow=none;endFill=0;edgeStyle=orthogonalEdgeStyle;" edge="1" parent="1" source="vCT2ARzlNAROPK_BbPEu-9" target="vCT2ARzlNAROPK_BbPEu-2">
          <mxGeometry relative="1" as="geometry" />
        </mxCell>
        <mxCell id="vCT2ARzlNAROPK_BbPEu-29" value="&amp;lt;&amp;lt;includer&amp;gt;&amp;gt;" style="rounded=0;orthogonalLoop=1;jettySize=auto;html=1;exitX=1;exitY=0.5;exitDx=0;exitDy=0;entryX=0;entryY=0.5;entryDx=0;entryDy=0;dashed=1;" edge="1" parent="1" source="vCT2ARzlNAROPK_BbPEu-9" target="vCT2ARzlNAROPK_BbPEu-16">
          <mxGeometry relative="1" as="geometry" />
        </mxCell>
        <mxCell id="vCT2ARzlNAROPK_BbPEu-9" value="회원 로그인" style="ellipse;whiteSpace=wrap;html=1;" vertex="1" parent="1">
          <mxGeometry x="320" y="-40" width="120" height="70" as="geometry" />
        </mxCell>
        <mxCell id="vCT2ARzlNAROPK_BbPEu-25" style="rounded=0;orthogonalLoop=1;jettySize=auto;html=1;exitX=0;exitY=0.5;exitDx=0;exitDy=0;dashed=1;entryX=1;entryY=0.5;entryDx=0;entryDy=0;" edge="1" parent="1" source="vCT2ARzlNAROPK_BbPEu-11" target="vCT2ARzlNAROPK_BbPEu-6">
          <mxGeometry relative="1" as="geometry" />
        </mxCell>
        <mxCell id="vCT2ARzlNAROPK_BbPEu-11" value="게시판 정렬" style="ellipse;whiteSpace=wrap;html=1;" vertex="1" parent="1">
          <mxGeometry x="400" y="160" width="120" height="70" as="geometry" />
        </mxCell>
        <mxCell id="vCT2ARzlNAROPK_BbPEu-26" style="rounded=0;orthogonalLoop=1;jettySize=auto;html=1;exitX=0;exitY=0.5;exitDx=0;exitDy=0;dashed=1;entryX=1;entryY=0.5;entryDx=0;entryDy=0;" edge="1" parent="1" source="vCT2ARzlNAROPK_BbPEu-12" target="vCT2ARzlNAROPK_BbPEu-6">
          <mxGeometry relative="1" as="geometry" />
        </mxCell>
        <mxCell id="vCT2ARzlNAROPK_BbPEu-12" value="게시판 검색" style="ellipse;whiteSpace=wrap;html=1;" vertex="1" parent="1">
          <mxGeometry x="400" y="240" width="120" height="70" as="geometry" />
        </mxCell>
        <mxCell id="vCT2ARzlNAROPK_BbPEu-28" style="rounded=0;orthogonalLoop=1;jettySize=auto;html=1;exitX=0;exitY=0.5;exitDx=0;exitDy=0;dashed=1;" edge="1" parent="1" source="vCT2ARzlNAROPK_BbPEu-14">
          <mxGeometry relative="1" as="geometry">
            <mxPoint x="280" y="410" as="targetPoint" />
          </mxGeometry>
        </mxCell>
        <mxCell id="vCT2ARzlNAROPK_BbPEu-14" value="댓글 보기, 쓰기, &lt;br&gt;수정, 삭제" style="ellipse;whiteSpace=wrap;html=1;" vertex="1" parent="1">
          <mxGeometry x="405" y="440" width="120" height="70" as="geometry" />
        </mxCell>
        <mxCell id="vCT2ARzlNAROPK_BbPEu-27" style="rounded=0;orthogonalLoop=1;jettySize=auto;html=1;exitX=0;exitY=0.5;exitDx=0;exitDy=0;dashed=1;" edge="1" parent="1" source="vCT2ARzlNAROPK_BbPEu-15">
          <mxGeometry relative="1" as="geometry">
            <mxPoint x="280" y="410" as="targetPoint" />
          </mxGeometry>
        </mxCell>
        <mxCell id="vCT2ARzlNAROPK_BbPEu-15" value="게시글 쓰기, 수정&lt;br&gt;,삭제" style="ellipse;whiteSpace=wrap;html=1;" vertex="1" parent="1">
          <mxGeometry x="405" y="360" width="120" height="70" as="geometry" />
        </mxCell>
        <mxCell id="vCT2ARzlNAROPK_BbPEu-16" value="인증" style="ellipse;whiteSpace=wrap;html=1;" vertex="1" parent="1">
          <mxGeometry x="570" y="-70" width="120" height="70" as="geometry" />
        </mxCell>
        <mxCell id="vCT2ARzlNAROPK_BbPEu-30" value="&amp;lt;&amp;lt;extend&amp;gt;&amp;gt;" style="rounded=0;orthogonalLoop=1;jettySize=auto;html=1;exitX=0;exitY=0.5;exitDx=0;exitDy=0;entryX=1.008;entryY=0.6;entryDx=0;entryDy=0;entryPerimeter=0;dashed=1;" edge="1" parent="1" source="vCT2ARzlNAROPK_BbPEu-17" target="vCT2ARzlNAROPK_BbPEu-9">
          <mxGeometry relative="1" as="geometry" />
        </mxCell>
        <mxCell id="vCT2ARzlNAROPK_BbPEu-17" value="로그인 실패" style="ellipse;whiteSpace=wrap;html=1;" vertex="1" parent="1">
          <mxGeometry x="570" y="20" width="120" height="70" as="geometry" />
        </mxCell>
        <mxCell id="vCT2ARzlNAROPK_BbPEu-32" style="rounded=0;orthogonalLoop=1;jettySize=auto;html=1;exitX=0;exitY=0.5;exitDx=0;exitDy=0;entryX=1;entryY=0.5;entryDx=0;entryDy=0;endArrow=none;endFill=0;" edge="1" parent="1" source="vCT2ARzlNAROPK_BbPEu-31" target="vCT2ARzlNAROPK_BbPEu-7">
          <mxGeometry relative="1" as="geometry" />
        </mxCell>
        <mxCell id="vCT2ARzlNAROPK_BbPEu-33" style="rounded=0;orthogonalLoop=1;jettySize=auto;html=1;exitX=0;exitY=0.5;exitDx=0;exitDy=0;entryX=1;entryY=0.5;entryDx=0;entryDy=0;endArrow=none;endFill=0;" edge="1" parent="1" source="vCT2ARzlNAROPK_BbPEu-31" target="vCT2ARzlNAROPK_BbPEu-15">
          <mxGeometry relative="1" as="geometry" />
        </mxCell>
        <mxCell id="vCT2ARzlNAROPK_BbPEu-34" style="rounded=0;orthogonalLoop=1;jettySize=auto;html=1;exitX=0;exitY=0.5;exitDx=0;exitDy=0;entryX=1;entryY=0.5;entryDx=0;entryDy=0;endArrow=none;endFill=0;" edge="1" parent="1" source="vCT2ARzlNAROPK_BbPEu-31" target="vCT2ARzlNAROPK_BbPEu-14">
          <mxGeometry relative="1" as="geometry" />
        </mxCell>
        <mxCell id="vCT2ARzlNAROPK_BbPEu-35" style="rounded=0;orthogonalLoop=1;jettySize=auto;html=1;exitX=0;exitY=0.5;exitDx=0;exitDy=0;endArrow=none;endFill=0;" edge="1" parent="1" source="vCT2ARzlNAROPK_BbPEu-31" target="vCT2ARzlNAROPK_BbPEu-6">
          <mxGeometry relative="1" as="geometry" />
        </mxCell>
        <mxCell id="vCT2ARzlNAROPK_BbPEu-36" style="rounded=0;orthogonalLoop=1;jettySize=auto;html=1;exitX=0;exitY=0.5;exitDx=0;exitDy=0;entryX=1;entryY=0.5;entryDx=0;entryDy=0;endArrow=none;endFill=0;" edge="1" parent="1" source="vCT2ARzlNAROPK_BbPEu-31" target="vCT2ARzlNAROPK_BbPEu-16">
          <mxGeometry relative="1" as="geometry" />
        </mxCell>
        <mxCell id="vCT2ARzlNAROPK_BbPEu-31" value="DB" style="rounded=0;whiteSpace=wrap;html=1;" vertex="1" parent="1">
          <mxGeometry x="840" y="150" width="120" height="170" as="geometry" />
        </mxCell>
      </root>
    </mxGraphModel>
  </diagram>
</mxfile>
